<svg width="28" height="35" viewBox="0 0 28 35" fill="none" xmlns="http://www.w3.org/2000/svg">
<path d="M14 17.5C14.9625 17.5 15.7865 17.1573 16.4719 16.4719C17.1573 15.7865 17.5 14.9625 17.5 14C17.5 13.0375 17.1573 12.2135 16.4719 11.5281C15.7865 10.8427 14.9625 10.5 14 10.5C13.0375 10.5 12.2135 10.8427 11.5281 11.5281C10.8427 12.2135 10.5 13.0375 10.5 14C10.5 14.9625 10.8427 15.7865 11.5281 16.4719C12.2135 17.1573 13.0375 17.5 14 17.5ZM14 30.3625C17.5583 27.0958 20.1979 24.1281 21.9188 21.4594C23.6396 18.7906 24.5 16.4208 24.5 14.35C24.5 11.1708 23.4865 8.56771 21.4594 6.54063C19.4323 4.51354 16.9458 3.5 14 3.5C11.0542 3.5 8.56771 4.51354 6.54063 6.54063C4.51354 8.56771 3.5 11.1708 3.5 14.35C3.5 16.4208 4.36042 18.7906 6.08125 21.4594C7.80208 24.1281 10.4417 27.0958 14 30.3625ZM14 35C9.30417 31.0042 5.79688 27.2927 3.47813 23.8656C1.15938 20.4385 0 17.2667 0 14.35C0 9.975 1.40729 6.48958 4.22188 3.89375C7.03646 1.29792 10.2958 0 14 0C17.7042 0 20.9635 1.29792 23.7781 3.89375C26.5927 6.48958 28 9.975 28 14.35C28 17.2667 26.8406 20.4385 24.5219 23.8656C22.2031 27.2927 18.6958 31.0042 14 35Z" fill="white"/>
</svg>
