<svg width="28" height="23" viewBox="0 0 28 23" fill="none" xmlns="http://www.w3.org/2000/svg">
<path d="M2.8 23C2.03 23 1.37083 22.7185 0.8225 22.1555C0.274167 21.5924 0 20.9156 0 20.125V2.875C0 2.08437 0.274167 1.40755 0.8225 0.844531C1.37083 0.28151 2.03 0 2.8 0H25.2C25.97 0 26.6292 0.28151 27.1775 0.844531C27.7258 1.40755 28 2.08437 28 2.875V20.125C28 20.9156 27.7258 21.5924 27.1775 22.1555C26.6292 22.7185 25.97 23 25.2 23H2.8ZM14 12.9375L2.8 5.75V20.125H25.2V5.75L14 12.9375ZM14 10.0625L25.2 2.875H2.8L14 10.0625ZM2.8 5.75V2.875V20.125V5.75Z" fill="white"/>
</svg>
