<svg width="72" height="72" viewBox="0 0 72 72" fill="none" xmlns="http://www.w3.org/2000/svg">
<mask id="mask0_665_767" style="mask-type:alpha" maskUnits="userSpaceOnUse" x="0" y="0" width="72" height="72">
<rect width="72" height="72" fill="#D9D9D9"/>
</mask>
<g mask="url(#mask0_665_767)">
<path d="M2.85 39.9C1.95 38.1 1.25 36.275 0.75 34.425C0.25 32.575 0 30.7 0 28.8C0 23.2 1.9 18.5 5.7 14.7C9.5 10.9 14.2 9 19.8 9C22.95 9 25.95 9.6625 28.8 10.9875C31.65 12.3125 34.05 14.15 36 16.5C37.95 14.15 40.35 12.3125 43.2 10.9875C46.05 9.6625 49.05 9 52.2 9C57.8 9 62.5 10.9 66.3 14.7C70.1 18.5 72 23.2 72 28.8C72 30.7 71.75 32.575 71.25 34.425C70.75 36.275 70.05 38.1 69.15 39.9C68.6 38.95 67.95 38.1 67.2 37.35C66.45 36.6 65.575 36 64.575 35.55C65.025 34.4 65.375 33.275 65.625 32.175C65.875 31.075 66 29.95 66 28.8C66 24.9 64.675 21.625 62.025 18.975C59.375 16.325 56.1 15 52.2 15C48.15 15 45.0375 16.1125 42.8625 18.3375C40.6875 20.5625 38.4 23.05 36 25.8C33.6 23 31.3125 20.5 29.1375 18.3C26.9625 16.1 23.85 15 19.8 15C15.9 15 12.625 16.325 9.975 18.975C7.325 21.625 6 24.9 6 28.8C6 29.95 6.125 31.075 6.375 32.175C6.625 33.275 6.975 34.4 7.425 35.55C6.425 36 5.55 36.6 4.8 37.35C4.05 38.1 3.4 38.95 2.85 39.9ZM0 66V61.275C0 59.075 1.1125 57.3125 3.3375 55.9875C5.5625 54.6625 8.45 54 12 54C12.65 54 13.275 54.0125 13.875 54.0375C14.475 54.0625 15.05 54.125 15.6 54.225C14.9 55.225 14.375 56.3 14.025 57.45C13.675 58.6 13.5 59.825 13.5 61.125V66H0ZM18 66V61.125C18 57.875 19.6625 55.25 22.9875 53.25C26.3125 51.25 30.65 50.25 36 50.25C41.4 50.25 45.75 51.25 49.05 53.25C52.35 55.25 54 57.875 54 61.125V66H18ZM58.5 66V61.125C58.5 59.825 58.3375 58.6 58.0125 57.45C57.6875 56.3 57.2 55.225 56.55 54.225C57.1 54.125 57.6625 54.0625 58.2375 54.0375C58.8125 54.0125 59.4 54 60 54C63.6 54 66.5 54.6625 68.7 55.9875C70.9 57.3125 72 59.075 72 61.275V66H58.5ZM36 56.25C33.15 56.25 30.6 56.625 28.35 57.375C26.1 58.125 24.775 59 24.375 60H47.7C47.25 59 45.9125 58.125 43.6875 57.375C41.4625 56.625 38.9 56.25 36 56.25ZM12 51C10.35 51 8.9375 50.4125 7.7625 49.2375C6.5875 48.0625 6 46.65 6 45C6 43.3 6.5875 41.875 7.7625 40.725C8.9375 39.575 10.35 39 12 39C13.7 39 15.125 39.575 16.275 40.725C17.425 41.875 18 43.3 18 45C18 46.65 17.425 48.0625 16.275 49.2375C15.125 50.4125 13.7 51 12 51ZM60 51C58.35 51 56.9375 50.4125 55.7625 49.2375C54.5875 48.0625 54 46.65 54 45C54 43.3 54.5875 41.875 55.7625 40.725C56.9375 39.575 58.35 39 60 39C61.7 39 63.125 39.575 64.275 40.725C65.425 41.875 66 43.3 66 45C66 46.65 65.425 48.0625 64.275 49.2375C63.125 50.4125 61.7 51 60 51ZM36 48C33.5 48 31.375 47.125 29.625 45.375C27.875 43.625 27 41.5 27 39C27 36.45 27.875 34.3125 29.625 32.5875C31.375 30.8625 33.5 30 36 30C38.55 30 40.6875 30.8625 42.4125 32.5875C44.1375 34.3125 45 36.45 45 39C45 41.5 44.1375 43.625 42.4125 45.375C40.6875 47.125 38.55 48 36 48ZM36 36C35.15 36 34.4375 36.2875 33.8625 36.8625C33.2875 37.4375 33 38.15 33 39C33 39.85 33.2875 40.5625 33.8625 41.1375C34.4375 41.7125 35.15 42 36 42C36.85 42 37.5625 41.7125 38.1375 41.1375C38.7125 40.5625 39 39.85 39 39C39 38.15 38.7125 37.4375 38.1375 36.8625C37.5625 36.2875 36.85 36 36 36Z" fill="black"/>
</g>
</svg>
