<svg width="60" height="60" viewBox="0 0 60 60" fill="none" xmlns="http://www.w3.org/2000/svg">
<mask id="mask0_667_2370" style="mask-type:alpha" maskUnits="userSpaceOnUse" x="0" y="0" width="60" height="60">
<rect width="60" height="60" fill="#D9D9D9"/>
</mask>
<g mask="url(#mask0_667_2370)">
<path d="M12.5 52.5C11.125 52.5 9.94792 52.0104 8.96875 51.0312C7.98958 50.0521 7.5 48.875 7.5 47.5V12.5C7.5 11.125 7.98958 9.94792 8.96875 8.96875C9.94792 7.98958 11.125 7.5 12.5 7.5H23C23.5417 6 24.4479 4.79167 25.7188 3.875C26.9896 2.95833 28.4167 2.5 30 2.5C31.5833 2.5 33.0104 2.95833 34.2813 3.875C35.5521 4.79167 36.4583 6 37 7.5H47.5C48.875 7.5 50.0521 7.98958 51.0312 8.96875C52.0104 9.94792 52.5 11.125 52.5 12.5V47.5C52.5 48.875 52.0104 50.0521 51.0312 51.0312C50.0521 52.0104 48.875 52.5 47.5 52.5H12.5ZM12.5 47.5H47.5V12.5H12.5V47.5ZM17.5 42.5H35V37.5H17.5V42.5ZM17.5 32.5H42.5V27.5H17.5V32.5ZM17.5 22.5H42.5V17.5H17.5V22.5ZM30 10.625C30.5417 10.625 30.9896 10.4479 31.3438 10.0938C31.6979 9.73958 31.875 9.29167 31.875 8.75C31.875 8.20833 31.6979 7.76042 31.3438 7.40625C30.9896 7.05208 30.5417 6.875 30 6.875C29.4583 6.875 29.0104 7.05208 28.6563 7.40625C28.3021 7.76042 28.125 8.20833 28.125 8.75C28.125 9.29167 28.3021 9.73958 28.6563 10.0938C29.0104 10.4479 29.4583 10.625 30 10.625Z" fill="#6A9F26"/>
</g>
</svg>
