<svg width="45" height="50" viewBox="0 0 45 50" fill="none" xmlns="http://www.w3.org/2000/svg">
<path d="M19.875 40.875L11 32L14.625 28.375L19.875 33.625L30.375 23.125L34 26.75L19.875 40.875ZM5 50C3.625 50 2.44792 49.5104 1.46875 48.5312C0.489583 47.5521 0 46.375 0 45V10C0 8.625 0.489583 7.44792 1.46875 6.46875C2.44792 5.48958 3.625 5 5 5H7.5V0H12.5V5H32.5V0H37.5V5H40C41.375 5 42.5521 5.48958 43.5312 6.46875C44.5104 7.44792 45 8.625 45 10V45C45 46.375 44.5104 47.5521 43.5312 48.5312C42.5521 49.5104 41.375 50 40 50H5ZM5 45H40V20H5V45ZM5 15H40V10H5V15Z" fill="#499ED7"/>
</svg>
